<svg xmlns="http://www.w3.org/2000/svg" width="28.91" height="34.549" viewBox="0 0 28.91 34.549">
  <path id="Path_2689" data-name="Path 2689" d="M70.335,18.328C68.39,10.572,60.857,7.655,60.2,6.945L62.05.2a8.5,8.5,0,0,0-5.557.645C52.367,2.618,50.069.36,50.069.36L52.1,7.05c-.638.726-8.651,3.983-10.1,11.647-1.252,6.593,2.664,16,14.368,15.85S71.972,24.839,70.335,18.328Zm-8.6.661v1.839H57.947l-.632.984v1.172h4.42v1.84h-4.42v3.2H55.158v-3.2h-4.42v-1.84h4.42V21.811l-.633-.984H50.738V18.989h2.6l-3.1-4.822h2.209l3.784,5.887,3.785-5.887h2.207l-3.1,4.822Z" transform="translate(-41.781 -0.001)" fill="#7e47c3"/>
</svg>
