<svg xmlns="http://www.w3.org/2000/svg" xmlns:xlink="http://www.w3.org/1999/xlink" width="488" height="292" viewBox="0 0 488 292">
  <defs>
    <clipPath id="clip-path">
      <rect id="Rectangle_169" data-name="Rectangle 169" width="488" height="292" transform="translate(719 2468)" fill="#fff" stroke="#707070" stroke-width="1"/>
    </clipPath>
  </defs>
  <g id="Mask_Group_3" data-name="Mask Group 3" transform="translate(-719 -2468)" clip-path="url(#clip-path)">
    <g id="Friendship_Day-amico_1_" data-name="Friendship Day-amico (1)" transform="translate(690.349 2429.347)">
      <g id="freepik--Graphics--inject-125" transform="translate(36.528 38.653)">
        <g id="freepik--Like--inject-125" transform="translate(29.895)">
          <path id="Path_2693" data-name="Path 2693" d="M68.248,82.529a.7.7,0,0,1-.7-.553l-5.073-23.15a.772.772,0,0,1,.092-.53A.692.692,0,0,1,63,58l7.667-1.649a.68.68,0,0,1,.83.519l5.073,23.162a.726.726,0,0,1-.53.83l-7.667,1.672ZM63.982,59.206l4.773,21.8,6.306-1.383-4.773-21.8ZM77.817,77.652a.692.692,0,0,1-.669-.553L72.8,57.165a.68.68,0,0,1,0-.4c1.3-3.263,3.3-8.439,3.459-9.3a28.039,28.039,0,0,0-1.153-5.568c-.173-.6-.3-1.061-.346-1.291s-.081-1.015,1.153-1.533a5.269,5.269,0,0,1,6.329,1.8,14.4,14.4,0,0,1,2.744,8.566l9.777-2.144a4.07,4.07,0,0,1,4.727,3.182,4.312,4.312,0,0,1-.519,3.205,3.77,3.77,0,0,1,2.248,2.8,4.15,4.15,0,0,1-1.487,4.093,5.983,5.983,0,0,1,.853,2.064A4.681,4.681,0,0,1,98.6,66.872a7.564,7.564,0,0,1,.657,1.833,4.427,4.427,0,0,1-3.7,5.027L77.978,77.594ZM74.2,57.073l4.162,19.011,16.925-3.7a3.1,3.1,0,0,0,2.652-3.355,5.9,5.9,0,0,0-.876-2.052.7.7,0,0,1,.415-1.084,3.113,3.113,0,0,0,1.775-2.94,3.459,3.459,0,0,0-.991-1.995A.726.726,0,0,1,98,60.324a.68.68,0,0,1,.392-.553,2.721,2.721,0,0,0,1.5-3.009,2.306,2.306,0,0,0-2.121-1.971.7.7,0,0,1-.634-.45.669.669,0,0,1,.173-.749,3.009,3.009,0,0,0,.842-2.836,2.652,2.652,0,0,0-3.067-2.11L84.446,50.951a.68.68,0,0,1-.588-.15.646.646,0,0,1-.254-.553,13.143,13.143,0,0,0-2.582-8.624,3.77,3.77,0,0,0-3.055-1.6,3.355,3.355,0,0,0-1.856.427c.069.242.161.6.288,1.026.749,2.675,1.407,5.165,1.245,6.18C77.436,48.91,74.773,55.632,74.2,57.073Z" transform="translate(-62.459 -38.653)" fill="#e0e0e0"/>
        </g>
        <g id="freepik--like--inject-125-2" data-name="freepik--like--inject-125" transform="translate(439.968 58.196)">
          <path id="Path_2694" data-name="Path 2694" d="M444.967,124.812l-6.237-1.372a.565.565,0,0,1-.357-.242.611.611,0,0,1-.081-.427l4.127-18.8a.565.565,0,0,1,.68-.427l6.237,1.372a.577.577,0,0,1,.357.242.611.611,0,0,1,.069.427l-4.116,18.792a.565.565,0,0,1-.576.45ZM443.4,104.717l-3.874,17.7,5.13,1.153,3.885-17.732Zm-6.249,16.141-14.331-3.136a3.6,3.6,0,0,1-3.009-4.081,5.566,5.566,0,0,1,.542-1.5,3.8,3.8,0,0,1-1.626-3.459,4.68,4.68,0,0,1,.7-1.683,3.459,3.459,0,0,1-1.222-3.332,3.078,3.078,0,0,1,1.833-2.306,3.459,3.459,0,0,1-.415-2.606,3.286,3.286,0,0,1,3.839-2.582l7.955,1.741a11.805,11.805,0,0,1,2.306-6.987,4.3,4.3,0,0,1,5.153-1.464c.98.427.968,1.015.911,1.245s-.138.565-.277,1.049a22.548,22.548,0,0,0-.992,4.542c.127.7,1.741,4.911,2.8,7.563a.473.473,0,0,1,0,.334l-3.539,16.141a.565.565,0,0,1-.576.45Zm.277-24.338a17.836,17.836,0,0,1,1-5.027c.1-.346.184-.646.231-.842a2.709,2.709,0,0,0-1.5-.334,3.032,3.032,0,0,0-2.49,1.291,10.757,10.757,0,0,0-2.11,7.021.519.519,0,0,1-.2.45.576.576,0,0,1-.484.127l-8.658-1.9a2.156,2.156,0,0,0-2.49,1.729,2.4,2.4,0,0,0,.68,2.306.565.565,0,0,1-.369.98,1.879,1.879,0,0,0-1.729,1.614,2.225,2.225,0,0,0,1.153,2.444.553.553,0,0,1,.323.438.565.565,0,0,1-.208.519,2.94,2.94,0,0,0-.807,1.614,2.548,2.548,0,0,0,1.453,2.387.553.553,0,0,1,.4.346.565.565,0,0,1-.069.542,4.911,4.911,0,0,0-.715,1.672A2.525,2.525,0,0,0,423,116.626l13.777,3.009,3.378-15.46c-.4-1.245-2.582-6.71-2.732-7.7Z" transform="translate(-418.148 -89.132)" fill="#e0e0e0"/>
        </g>
        <path id="freepik--Star--inject-125" d="M433.043,46.149l.242,8.82,7.39,4.8a1.153,1.153,0,0,1-.242,2.041l-8.312,2.951-2.306,8.508a1.153,1.153,0,0,1-2.006.4l-5.372-7-8.808.461a1.153,1.153,0,0,1-1-1.787l4.992-7.263-3.159-8.243a1.153,1.153,0,0,1,1.395-1.5l8.451,2.5,6.86-5.557a1.153,1.153,0,0,1,1.879.865Z" transform="translate(20.947 -37.679)" fill="#e0e0e0"/>
        <path id="freepik--star--inject-125-2" data-name="freepik--star--inject-125" d="M70.015,92.15l.231,8.82,7.39,4.8a1.153,1.153,0,0,1-.231,2.041l-8.324,2.951-2.306,8.52a1.153,1.153,0,0,1-2.006.392l-5.373-7-8.808.461a1.153,1.153,0,0,1-1-1.787l4.992-7.263-3.159-8.243a1.153,1.153,0,0,1,1.4-1.5l8.451,2.5,6.86-5.557a1.153,1.153,0,0,1,1.891.865Z" transform="translate(-34.561 -30.647)" fill="#e0e0e0"/>
        <path id="Path_2695" data-name="Path 2695" d="M397.292,64.575a1.222,1.222,0,0,1-.968-.473l-2.848-3.712-4.612.242a1.234,1.234,0,0,1-1.153-.623,1.211,1.211,0,0,1,.058-1.291l2.652-3.851-1.764-4.4a1.224,1.224,0,0,1,1.487-1.614l4.485,1.337,3.632-2.951a1.257,1.257,0,0,1,1.28-.161,1.222,1.222,0,0,1,.715,1.084h0l.127,4.612,3.92,2.548a1.222,1.222,0,0,1-.254,2.179l-4.45,1.66-1.153,4.508a1.153,1.153,0,0,1-.934.888ZM394.017,59.2l3.217,4.2.68.127-.623-.15,1.36-5.107,4.981-1.764v-.127l-4.439-2.871-.138-5.28a.069.069,0,0,0,0-.069l-4.185,3.332-5.061-1.5-.623.3.542-.208,1.9,4.992-3,4.358.058.1Z" transform="translate(17.142 -37.382)" fill="#e0e0e0"/>
        <path id="Path_2696" data-name="Path 2696" d="M46.353,85.33a1.211,1.211,0,0,1-.968-.484l-2.848-3.7-4.669.242a1.234,1.234,0,0,1-1.153-.623,1.211,1.211,0,0,1,0-1.291l2.652-3.851-1.6-4.358a1.224,1.224,0,0,1,1.487-1.614l4.485,1.326,3.643-2.94a1.222,1.222,0,0,1,1.28-.161,1.153,1.153,0,0,1,.7,1.084l.127,4.612,3.92,2.548a1.222,1.222,0,0,1-.2,2.294l-4.462,1.5L47.529,84.43a1.153,1.153,0,0,1-.934.888Zm-3.274-5.372,3.217,4.22.68.127-.553-.127,1.372-5.1,4.969-1.822.334-.611-.311.484L48.347,74.25l-.138-5.28-4.22,3.286-5.061-1.5-.623.3.542-.208,1.891,4.934-3,4.358.092.68v-.576Z" transform="translate(-36.528 -34.202)" fill="#e0e0e0"/>
      </g>
      <g id="freepik--Characters--inject-125" transform="translate(87.249 57.865)">
        <g id="freepik--Character--inject-125" transform="translate(180.676 0)">
          <g id="freepik--Bottom--inject-125" transform="translate(71.253 180.501)">
            <path id="Path_2697" data-name="Path 2697" d="M361.893,322.3c.623,4.612,7.517,5.4,9.892,5.764,6.387,1,12.059-.692,17.766-3.712s8.266-6.548,8.255-11.84l-.265-3.067c-.069-4.4-.138-8.07-.346-12.175-2.11-40.49-7.125-60.758-11.195-66.787-1.914-2.848-3.459-6.86-5.188-9.973-2.548-4.612-4.531-8.635-4.531-8.635H318.129c-6.537,94.076-3.643,97.593-1.856,135.823.83,17.766,9.558,68.828,10.111,82.674,0,.83,3.908,4.473,9.569,3.632s7.206-2.79,7.217-3.378c0-2.052,2.167-5.038,2.375-7.079,1.407-13.339,3.009-30.506,4.439-44.156a85.73,85.73,0,0,0-2.306-31l8.508-52.353c1.337,7.828,2.582,14.7,4.681,22.551Z" transform="translate(-296.743 -211.88)" fill="#ffa8a7"/>
            <path id="Path_2698" data-name="Path 2698" d="M353.481,290.1l-4.058-22.608s-14.273-8.67-17.743-16.648c0,0,2.974,12.474,13.95,19.449l3.044,20.51-3.7,51.65Z" transform="translate(-294.05 -205.923)" fill="#f28f8f"/>
            <path id="Path_2699" data-name="Path 2699" d="M409.06,393.6c-1.937-4.969-6.018-7.471-11.9-6.56s-7.436,8.647-6.456,12.463Z" transform="translate(-285.067 -185.126)" fill="#263238"/>
            <path id="Path_2700" data-name="Path 2700" d="M381.265,348.3a4.612,4.612,0,0,1,3.851-1.441c.646.115,1.061.415-.4,1.418l21.1,56.757a10.515,10.515,0,0,1-5.453,2.029L379.27,350.31a6.4,6.4,0,0,0,1.995-2.006Z" transform="translate(-286.774 -191.245)" fill="#e0e0e0"/>
            <path id="Path_2701" data-name="Path 2701" d="M379.617,348.813a4.611,4.611,0,0,1,3.851-1.43,1.453,1.453,0,0,1,1.211.819l21.1,56.757a1.453,1.453,0,0,1-.392,1.407,4.519,4.519,0,0,1-3.851,1.43,1.43,1.43,0,0,1-1.211-.807l-21.086-56.757a1.464,1.464,0,0,1,.38-1.418Z" transform="translate(-286.787 -191.166)" opacity="0.1"/>
            <path id="Path_2702" data-name="Path 2702" d="M398.917,385.591c.507,1.845-4.854,3.643-5.534,1.81-.772.726-1.383,1.222-.311,3.8s-2.836,4.254-1.683,7.99c2.836,9.166,6.618,6.456,11.713,4.923,2.663-.8,5.419-3.286,5.984-5.638,0,0-1.038-4.139-1.464-5.1-1.626-3.7-5.084-2.456-6.053-5.027C401.073,387.044,400.347,385.441,398.917,385.591Z" transform="translate(-284.954 -185.322)" fill="#455a64"/>
            <path id="Path_2703" data-name="Path 2703" d="M383.185,346.931a1.418,1.418,0,0,1,1.245.749,1.464,1.464,0,0,1-.3,1.43,4.531,4.531,0,0,1-3.781,1.626,1.245,1.245,0,0,1-.934-2.167A4.508,4.508,0,0,1,383.185,346.931Z" transform="translate(-286.815 -191.233)" fill="#455a64"/>
            <path id="Path_2704" data-name="Path 2704" d="M378.057,349.478a8.82,8.82,0,0,1,7.494-2.79,2.79,2.79,0,0,1,2.306,1.591l1.026,2.744a2.825,2.825,0,0,1-.749,2.732,8.82,8.82,0,0,1-7.494,2.79,2.836,2.836,0,0,1-2.363-1.591l-1.015-2.744a2.79,2.79,0,0,1,.8-2.732Z" transform="translate(-287.094 -191.277)" fill="#e0e0e0"/>
            <path id="Path_2705" data-name="Path 2705" d="M385.554,346.688a2.433,2.433,0,0,1,1.6,4.323,8.82,8.82,0,0,1-7.494,2.79,2.433,2.433,0,0,1-1.6-4.323,8.82,8.82,0,0,1,7.494-2.79Z" transform="translate(-287.097 -191.277)" fill="#ebebeb"/>
            <path id="Path_2706" data-name="Path 2706" d="M373.792,335.431a6.537,6.537,0,0,1,5.557-2.075,2.11,2.11,0,0,1,1.752,1.153l6.007,16.141a2.1,2.1,0,0,1-.553,2.041,6.56,6.56,0,0,1-5.511,2.167,2.11,2.11,0,0,1-1.752-1.153l-6.007-16.141a2.075,2.075,0,0,1,.507-2.133Z" transform="translate(-287.705 -193.313)" fill="#455a64"/>
            <path id="Path_2707" data-name="Path 2707" d="M354.7,305.663c-1.072.438-.184,3.885,1.3,9.984a148.334,148.334,0,0,0,7.413,21.121c2.306,4.877,5.949,12.048,5.949,12.048s4.139,5.9,15.53.934,10.376-11.529,10.376-11.529-.68-8.07-1.337-12.843-.7-18.6-.853-22.839-.473-6.226-1.752-6.007l.265,3.067s-.138,7.69-14.988,11.863c-15.218,4.289-20.925-2.087-20.925-2.087Z" transform="translate(-290.602 -198.939)" fill="#f28f8f"/>
            <path id="Path_2708" data-name="Path 2708" d="M388.9,342.212c-.542-2.041-.991-4.093-1.372-6.156a87.362,87.362,0,0,1-1.314-12.959c-.127-4.173-.242-8.324-.634-12.474q-.323-3.309-.807-6.583a3.786,3.786,0,0,0-.092-.6c-.219.265-.473.53-.738.8a4.808,4.808,0,0,0,.092.565c.277,1.983.5,3.966.657,5.96.38,4.358.4,8.727.576,13.1a87.108,87.108,0,0,0,1.3,12.117q.576,3.09,1.36,6.145c.1.392.2.8.3,1.153q.392-.45.726-.9A1.408,1.408,0,0,1,388.9,342.212Z" transform="translate(-286.06 -197.881)" fill="#b16668"/>
            <path id="Path_2709" data-name="Path 2709" d="M382.336,313.5a1.249,1.249,0,1,0-1.395-1.084,1.249,1.249,0,0,0,1.395,1.084Zm.323,7.713a1.234,1.234,0,1,0-.915-.248A1.245,1.245,0,0,0,382.659,321.213Zm1.533,7.056a1.42,1.42,0,1,0,0,.023Zm.334,7.863a1.249,1.249,0,1,0,1.395,1.084,1.249,1.249,0,0,0-1.395-1.084Z" transform="translate(-286.52 -196.723)" fill="#b16668"/>
            <path id="Path_2710" data-name="Path 2710" d="M398,427.365c1.476,5.43,3.1,8.889,5.764,11.7s6.525,3.032,10.053,1.3,7.759-5.257,7.817-10.226-.842-8.163-2.755-13.074Z" transform="translate(-283.91 -180.507)" fill="#263238"/>
            <path id="Path_2711" data-name="Path 2711" d="M406.8,390.09c1.383.138,3.77,7.056,6.226,14.25,2.617,7.713,4.519,9.811,6.744,16.141,2.536,7.217,2.536,9.8.888,14.838s-9.915,11.368-15.806,5.914c-4.8-4.45-5.868-9.419-7.1-16.9a156.52,156.52,0,0,0-3.793-17.616c-1.464-5.488-4.3-10.376-3.1-11.252.277.8,2.79,6.767,3.678,5.868.438-.184.357-.98,0-2.4a2.513,2.513,0,0,1,0-1.879,2.894,2.894,0,0,1,1.545-1.153c1.441-.623,3.459-1.533,4.934-1.995.876-.265.369-.173,1.257-.415s2.5-.853,3.39-.6c.53.138.669.6.9,1.153s.507,1.153.772,1.672c.1.2.484.565.692.5s.254-1.072.138-1.487-.231-1.1-.357-1.591S407.206,391.358,406.8,390.09Z" transform="translate(-285.046 -184.632)" fill="#37474f"/>
            <path id="Path_2712" data-name="Path 2712" d="M417.953,414.29c.369,1.038,2.525,7.551.865,9.223s-4.116-3.459-4.116-3.459-5.211-.461-11.679,4.162c.611,1.072.311,5.1-1.81,4.7s-4.289-7.54-4.323-7.644c1.211,7.159,2.306,11.932,7,16.256,5.891,5.453,14.158-.888,15.806-5.914s1.649-7.621-.888-14.838C418.553,416.042,418.23,414.936,417.953,414.29Z" transform="translate(-284.08 -180.932)" fill="#455a64"/>
            <path id="Path_2713" data-name="Path 2713" d="M413.055,424.32c.6,2.675,2.8,1.245,2.375-2.594-.646-5.764-3.194-10.872-4.554-17.386-2.456-7.194-4.669-14.457-6.226-14.25.323,1.268,1.153,3.978,1.153,3.978.161.53.519,1.9.519,1.9,1.637,5.419,4.462,11.529,5.442,17.293C412.57,418.348,412.467,421.645,413.055,424.32Z" transform="translate(-282.893 -184.633)" fill="#263238"/>
            <path id="Path_2714" data-name="Path 2714" d="M404.829,426.927c-1.061-2.525-2.075-3.09-3.666-7.967s-5.119-13.258-7.309-18.446c-.646-1.614-2.951-5.764-2.974-5.764-.865.669-.45,3.77,1.015,6.917s2.4,5.13,3.562,8.232c2.663,6.1,4.289,12.832,5.937,16.337S405.89,429.452,404.829,426.927Z" transform="translate(-285.067 -183.92)" fill="#263238"/>
            <path id="Path_2715" data-name="Path 2715" d="M402.51,423.553a.646.646,0,0,0,.2-.1,18.446,18.446,0,0,1,11.529-3.724.588.588,0,0,0,.6-.553.576.576,0,0,0-.542-.611,19.311,19.311,0,0,0-12.324,3.966.576.576,0,0,0-.081.819.588.588,0,0,0,.623.208Z" transform="translate(-283.336 -180.281)" fill="#f0f0f0"/>
            <path id="Path_2716" data-name="Path 2716" d="M400.19,419.322l.184-.092c.058,0,6.214-4.612,13.454-4.485a.576.576,0,0,0,.588-.576.565.565,0,0,0-.565-.588c-7.667-.138-13.95,4.542-14.192,4.715a.588.588,0,0,0-.1.819A.576.576,0,0,0,400.19,419.322Z" transform="translate(-283.691 -181.041)" fill="#f0f0f0"/>
            <path id="Path_2717" data-name="Path 2717" d="M413.957,410.833a.565.565,0,0,0,.4-.484.576.576,0,0,0-.507-.646c-7.367-.876-15.726,4.254-15.991,4.462a.588.588,0,0,0,.749.9c.058,0,8.243-5.027,15.1-4.208A.565.565,0,0,0,413.957,410.833Z" transform="translate(-283.957 -181.649)" fill="#f0f0f0"/>
            <path id="Path_2718" data-name="Path 2718" d="M412.062,406.88a.588.588,0,0,0,.392-.473.565.565,0,0,0-.5-.657c-8.139-1.153-14.988,4.681-15.264,4.9a.579.579,0,0,0,.8.842c.058,0,6.744-5.626,14.307-4.612a.67.67,0,0,0,.265,0Z" transform="translate(-284.137 -182.261)" fill="#f0f0f0"/>
            <path id="Path_2719" data-name="Path 2719" d="M410.548,401.889a.6.6,0,0,0,.392-.473.577.577,0,0,0-.484-.657c-7.655-1.153-15.08,4.842-15.333,5.073a.588.588,0,0,0,0,.819.576.576,0,0,0,.819,0c.069,0,7.286-5.868,14.388-4.8A.507.507,0,0,0,410.548,401.889Z" transform="translate(-284.375 -183.024)" fill="#ebebeb"/>
            <path id="Path_2720" data-name="Path 2720" d="M299.815,426.236c-.346,0-.68,3.828,1.257,5.338,2.248,1.752,8.7,4.5,16.982,3.009s10.537-3.263,13.731-6.214,6.133-6.03,9.857-7.044c3.459-.945,8.739-2.606,9.8-3.747s.692-5.937.692-5.937Z" transform="translate(-298.963 -181.337)" fill="#263238"/>
            <path id="Path_2721" data-name="Path 2721" d="M347.956,393.67c2.513,0,1.764,5.926,2.905,8.393a55.039,55.039,0,0,1,1.222,13.985c-.346,2.49-7.505,4.369-11.091,5.937-8.07,3.655-14.688,13.523-25.029,13.339-6.433.265-13.777-1.464-15.576-4.369-7.125-12.786,24.8-14.988,26.39-33.757.069-1.153.726-1.764,3.263-1.937,2.882-.184,6.479.334,8.681,2.4.922,1.211.138,2.974.934,4.2,1.626.427,2.536-2.456,3.528-3.459C344.878,397.071,348.89,396.7,347.956,393.67Z" transform="translate(-298.993 -184.085)" fill="#37474f"/>
            <path id="Path_2722" data-name="Path 2722" d="M331.137,425.723a48.416,48.416,0,0,1,4.266-3.609h0s-9.973,4.508-14.642,1.637c-3.021-1.856-1.752-4.346-1.718-5.119s-7-3.747-9.846-3.943h-1.153c-.772.473-1.695.911-2.1,1.153-8.232,4.727-7.724,8.324-5.488,11.921,1.8,2.905,7.159,4.969,15.46,4.612a26.436,26.436,0,0,0,15.218-6.652Z" transform="translate(-299.041 -180.871)" fill="#455a64"/>
            <path id="Path_2723" data-name="Path 2723" d="M317.478,419.541c-5.822,2.652-3.24,3.643-1.568,3.793s9.811-5.061,15.668-10.169c6.1-5.338,11.379-10.906,13.65-12.866.842-.726,1.752-1.626,2.548-2.456-.219-1.291-.4-2.479-.553-3.09a1.487,1.487,0,0,0-1.464-1.084l-.219,2.1a4.7,4.7,0,0,1-1.683.968,7.482,7.482,0,0,0-2.871,1.672,25.359,25.359,0,0,1-2.421,3.205C333.677,408.439,323.243,416.878,317.478,419.541Z" transform="translate(-296.773 -184.085)" fill="#263238"/>
            <path id="Path_2724" data-name="Path 2724" d="M317.486,419.268a.623.623,0,0,0,.369-.15.588.588,0,0,0,0-.83,14.123,14.123,0,0,0-11.068-3.758.588.588,0,0,0-.5.669.576.576,0,0,0,.68.484,13.1,13.1,0,0,1,10.007,3.389A.576.576,0,0,0,317.486,419.268Z" transform="translate(-297.933 -180.906)" fill="#f0f0f0"/>
            <path id="Path_2725" data-name="Path 2725" d="M321.8,416.546a.542.542,0,0,0,.357-.138.588.588,0,0,0,.069-.83,14.134,14.134,0,0,0-10.976-4.012.576.576,0,0,0-.507.657.588.588,0,0,0,.657.507,13.1,13.1,0,0,1,9.938,3.609A.6.6,0,0,0,321.8,416.546Z" transform="translate(-297.253 -181.355)" fill="#f0f0f0"/>
            <path id="Path_2726" data-name="Path 2726" d="M325.826,413.438a.611.611,0,0,0,.357-.15.588.588,0,0,0,0-.83,14.1,14.1,0,0,0-11.068-3.758.589.589,0,1,0,.184,1.164,13.062,13.062,0,0,1,10.007,3.378.588.588,0,0,0,.519.2Z" transform="translate(-296.658 -181.798)" fill="#f0f0f0"/>
            <path id="Path_2727" data-name="Path 2727" d="M329.348,410.691a.6.6,0,0,0,.45-.968A14.134,14.134,0,0,0,318.9,405.5a.588.588,0,1,0,.127,1.153,13.1,13.1,0,0,1,9.857,3.8A.577.577,0,0,0,329.348,410.691Z" transform="translate(-296.099 -182.279)" fill="#f0f0f0"/>
            <path id="Path_2728" data-name="Path 2728" d="M333.259,407.46a.542.542,0,0,0,.369-.138.588.588,0,0,0,.092-.819c-2.306-2.882-7.563-4.75-11.921-4.231a.6.6,0,0,0-.519.657.588.588,0,0,0,.657.507c3.92-.461,8.8,1.245,10.86,3.8A.611.611,0,0,0,333.259,407.46Z" transform="translate(-295.641 -182.783)" fill="#f0f0f0"/>
          </g>
          <g id="freepik--Top--inject-125">
            <g id="freepik--Arm--inject-125" transform="translate(0 115.846)">
              <path id="Path_2729" data-name="Path 2729" d="M273.707,197.385c-3.113-1.222-5.361-4.173-9.039-6.917s-6.514-3.943-7.69-5.764-3.32,1.291-1.948,3.735,4.254,4.15,3.24,4.808c-1.522.98-4.819-.968-6.087-1.626-3.92-2.006-8.6-5.764-13.189-6.076a1.856,1.856,0,0,0-1.36.311,1.556,1.556,0,0,0-.161,1.856,8.728,8.728,0,0,0,1.3,1.545,2.306,2.306,0,0,1,.68,1.822c-.127.6-.634,1.084-.726,1.683a2.375,2.375,0,0,0,.231,1.153,6.987,6.987,0,0,0,1.153,1.845,13.2,13.2,0,0,1,1.153,1.372,11.529,11.529,0,0,1,.922,3.009c1.245,4.323,6.779,7.505,10.538,9.223,8.07,3.8,12.44,2.479,17.4,3.954s20.533,4.22,31.659,6.445c9.223,1.856,10.376,1.407,19.807-7.863a147.41,147.41,0,0,0,20.637-25.1c5.764-9.05,5.6-25.2,1.337-31-13.593,2.306-14.988,5.28-25.283,21.317s-13.835,21.548-13.835,21.548S276.819,198.6,273.707,197.385Z" transform="translate(-237.237 -155.8)" fill="#ffa8a7"/>
              <path id="Path_2730" data-name="Path 2730" d="M254.588,190.94a10.457,10.457,0,0,0,9.419,7.92C260.906,199.783,253.793,198.18,254.588,190.94Z" transform="translate(-234.594 -150.427)" fill="#f28f8f"/>
            </g>
            <path id="freepik--arm--inject-125-2" data-name="freepik--arm--inject-125" d="M381.268,200.576c-5.972,1.36-13.57,4.369-15.31,3.021s1.222-1.741,3.62-3.459c3.078-2.306,3.643-4.266,2.041-5.638-5.349,1.925-7.471,1.937-12.486,3.205s-6.595,2.214-19.772.945c-12.682-1.222-26.62-2.94-26.62-2.94-12.071-12.244-14.988-16.486-23.2-25.744-5.9-6.629-7.92-8.128-16.141-9.926-9.915,15.253,2.363,34.414,2.363,34.414s10.63,9.292,22.089,17.939c5.649,4.254,8.22,4.773,15.207,4.612,11.771-.219,25.364-.657,29.779-.7s6.341,0,13.385,1.764c4.981,1.257,11.114,1.049,19.6-2.433,5.7-2.306,8.266-8.854,8.382-12.013C386.594,202.374,384.7,199.78,381.268,200.576Z" transform="translate(-232.299 -39.305)" fill="#b16668"/>
            <g id="freepik--Dress--inject-125" transform="translate(83.081 113.598)">
              <path id="Path_2731" data-name="Path 2731" d="M398.477,277.049c-4.612-32.5-8.382-39.487-13.5-48.756-4.612-8.382-6.2-11.656-5.764-15.852s1.015-7.84,3.09-19.161,1.153-33.434-1.925-34.322-13.2-4.934-13.2-4.934c-4.358.53-22.608-.173-22.608-.173l-11.956,2.306a62.971,62.971,0,0,0-12.8,11.4c-7.286,8.485-8.97,14-8.6,21.732.346,7.39,6.837,11.817,6.837,11.817a101.282,101.282,0,0,1,.888,14.723s-1.995,21.282-3.609,39.383c-2.19,24.5-6.03,58.89-6.03,58.89s11.529,11.079,43.995,11.079,49.9-13.719,49.9-13.719S401.635,299.576,398.477,277.049Z" transform="translate(-309.3 -153.85)" fill="#7e47c3"/>
              <path id="Path_2732" data-name="Path 2732" d="M398.477,277.049c-4.612-32.5-8.382-39.487-13.5-48.756-4.612-8.382-6.2-11.656-5.764-15.852s1.015-7.84,3.09-19.161,1.153-33.434-1.925-34.322-13.2-4.934-13.2-4.934c-4.358.53-22.608-.173-22.608-.173l-11.956,2.306a62.971,62.971,0,0,0-12.8,11.4c-7.286,8.485-8.97,14-8.6,21.732.346,7.39,6.837,11.817,6.837,11.817a101.282,101.282,0,0,1,.888,14.723s-1.995,21.282-3.609,39.383c-2.19,24.5-6.03,58.89-6.03,58.89s11.529,11.079,43.995,11.079,49.9-13.719,49.9-13.719S401.635,299.576,398.477,277.049Z" transform="translate(-309.3 -153.85)" fill="#fff" opacity="0.3"/>
              <g id="Group_6642" data-name="Group 6642" transform="translate(24.603 42.346)" opacity="0.2">
                <path id="Path_2733" data-name="Path 2733" d="M359.4,192.321s-4.231,7.69-15.149,6.917a16.417,16.417,0,0,1-13.616-8.658s0,10.572,13.512,11.183S359.4,192.321,359.4,192.321Z" transform="translate(-330.64 -190.58)"/>
              </g>
            </g>
            <g id="freepik--arm--inject-125-3" data-name="freepik--arm--inject-125" transform="translate(130.045)">
              <path id="Path_2734" data-name="Path 2734" d="M366.3,80.678c-2.121-6.145-9.1-10.514-13.028-14.042s-3.067-6.595-.553-7.9S370.3,75.617,366.3,80.678Z" transform="translate(-349.954 -54.804)" fill="#f28f8f"/>
              <path id="Path_2735" data-name="Path 2735" d="M362.6,72.661c1.222,1.441,1.372,3.735-1.741,2.559s-5.176-3.286-7.955-2.686-2.94,1.868-1.349,2.963c2.813,1.937,7.033,5.672,11.321,8.6s10.607,3.251,12.313,4.957-3.781-13.27-3.781-13.27Z" transform="translate(-349.958 -52.701)" fill="#f28f8f"/>
              <path id="Path_2736" data-name="Path 2736" d="M376.188,208.344c1.787-10.019,5.061-17.4,15.576-38.76,6.03-12.267,12.786-23.577,15.126-31.243,2.49-8.07,2.306-10.134.784-14.457-1.729-4.957-5.649-13.731-12.889-29.918-8.393-18.758-13.939-22.124-25.687-28.915-7.436-4.289-16.141-8.658-17.789-9.615s-2.214,4.093,1.533,7.217,10,7.217,11.206,11.529a46.887,46.887,0,0,0,3.459,9.419c1.672,3.182,4.9,5.28,7.355,7.655,3.9,3.758,10.1,39.625,10.1,39.625-3.609,7.448-12.52,27.439-15.172,30.805s-8.843,7.379-8.843,7.379S359.033,198.268,376.188,208.344Z" transform="translate(-350.036 -55.317)" fill="#ffa8a7"/>
            </g>
            <g id="freepik--Head--inject-125" transform="translate(91.278 48.64)">
              <path id="Path_2737" data-name="Path 2737" d="M360.462,157.726c3.459-.058,7.99-1.672,8.255-5.626a3.643,3.643,0,0,1,1.614,4.612,8.935,8.935,0,0,0,4.439-10.872c2.536.749,7.344-.127,8.174-3.724-12.451-2.387-4.785-13.523-9.673-26.517-6.975-18.677-32.673-24.072-45.8-10.607-13.454,2.513-13.835,18.815-5.419,25.364C334.845,139.43,347.423,149.206,360.462,157.726Z" transform="translate(-316.41 -97.506)" fill="#263238"/>
              <path id="Path_2738" data-name="Path 2738" d="M331.027,109.1c-3.459,1.66-10.249,7.206-10.076,26.793.127,14.757,4.808,18.043,7.113,19.3s6.445,1.891,11,1.533l-.127,5.372s-10.526,6.537-3.032,9.857c3.666,1.637,10.376,0,15.276-2.306,6.848-3.205,8.508-7.01,8.508-7.01l.173-18.227s2.4,2.433,6.629-.1c4.531-2.709,4.992-9.1,2.663-12.486a6.5,6.5,0,0,0-6.721-2.755,6.329,6.329,0,0,0-3.274,2.133c-1.153,1.314-1.96,2.686-.761,4.5a2.744,2.744,0,0,1-2.951,4.047c1.649-1.061.784-2.4-.161-3.044-1.453-1-3.205-1.96-3.055-4.047.138-1.868,2.179-2.894,1.43-4.773-1.556-3.9-5.949-6.133-9.788-7.159C335.385,118.508,330.577,113.423,331.027,109.1Z" transform="translate(-315.716 -95.734)" fill="#ffa8a7"/>
              <path id="Path_2739" data-name="Path 2739" d="M336.665,151.684c4.773-.219,14.757-1.752,16.221-9.6,0,0,.611,5.914-2.363,8.335-4.911,4.012-13.892,4.946-13.892,4.946Z" transform="translate(-313.319 -90.691)" fill="#f28f8f"/>
              <path id="Path_2740" data-name="Path 2740" d="M338.27,128.212a2.167,2.167,0,1,0,2.386-2.041,2.214,2.214,0,0,0-2.386,2.041Z" transform="translate(-313.068 -93.125)" fill="#263238"/>
              <path id="Path_2741" data-name="Path 2741" d="M324.72,127.5a2.167,2.167,0,1,0,2.306-2.11A2.225,2.225,0,0,0,324.72,127.5Z" transform="translate(-315.14 -93.243)" fill="#263238"/>
              <path id="Path_2742" data-name="Path 2742" d="M339.81,122.741l4.831,2.813a2.652,2.652,0,0,0-.865-3.77A2.928,2.928,0,0,0,339.81,122.741Z" transform="translate(-312.832 -93.857)" fill="#263238"/>
              <path id="Path_2743" data-name="Path 2743" d="M328.825,121.836l-4.831,2.709a2.686,2.686,0,0,1,.934-3.758A2.94,2.94,0,0,1,328.825,121.836Z" transform="translate(-315.314 -94)" fill="#263238"/>
              <path id="Path_2744" data-name="Path 2744" d="M339.673,139.11l-7.183,2.19a3.758,3.758,0,0,0,5.027,2.375,3.516,3.516,0,0,0,2.156-4.565Z" transform="translate(-313.952 -91.145)" fill="#b16668"/>
              <path id="Path_2745" data-name="Path 2745" d="M335.06,143.689a3.954,3.954,0,0,1,4.024-3.459,3.356,3.356,0,0,1,.357,0,3.309,3.309,0,0,1-2.306,3.217A4.266,4.266,0,0,1,335.06,143.689Z" transform="translate(-313.559 -90.975)" fill="#f28f8f"/>
              <path id="Path_2746" data-name="Path 2746" d="M335.106,125.74l-1.2,12.936-7.067-2.548Z" transform="translate(-314.815 -93.189)" fill="#f28f8f"/>
            </g>
          </g>
        </g>
        <g id="freepik--character--inject-125-2" data-name="freepik--character--inject-125">
          <g id="freepik--bottom--inject-125-2" data-name="freepik--bottom--inject-125" transform="translate(0 190.704)">
            <path id="Path_2747" data-name="Path 2747" d="M146.694,395.4,145.23,372l23.058,2.882s-1.522,14.988-2.306,20.752c-.461,3.4,2.594,10.157,2.594,10.157s-10.272,4.542-15.368,2.167-7.309-9.362-7.113-10.837S146.694,395.4,146.694,395.4Z" transform="translate(-70.629 -197.601)" fill="#ffbda7"/>
            <path id="Path_2748" data-name="Path 2748" d="M194.934,423.982c.334,0,.588,3.562-1.3,4.934-2.19,1.568-8.462,3.966-16.417,2.375s-12.128-4.289-15.161-7.113-7.286-6.814-10.86-7.84c-3.32-.968-6.917-2.7-7.9-3.793s-.553-5.545-.553-5.545Z" transform="translate(-71.023 -192.25)" fill="#263238"/>
            <path id="Path_2749" data-name="Path 2749" d="M147.076,392.27a1.291,1.291,0,0,0-1.291.957c-.323,1.222-.842,4.785-1.51,6.767a34.737,34.737,0,0,0-1.533,10.814c.288,2.306,5.672,4.312,9.1,5.857a45.6,45.6,0,0,1,10.906,7.759c3.562,3.274,11.275,6.917,16.509,7.309,6.191.4,13.293-1.026,15.08-3.689,2.214-3.286,3.92-7.159-4.969-11.921-1.683-.911-7.551-4.831-9.534-6.249-5.4-3.828-9.142-7.24-11.31-13.477a3.378,3.378,0,0,0-1.153-1.948,3.067,3.067,0,0,0-1.764-.288c-1.545.1-7.7.473-9.142,1.015-1.268.473-3.055,1.015-3.136,2.536a4.842,4.842,0,0,0,.242,1.568c.092.323.15.738-.15.9s-.623-.069-.842-.288a24.642,24.642,0,0,1-2.306-3.044,8.518,8.518,0,0,0-1.349-1.533,14.733,14.733,0,0,1-1.5-1.153C146.868,393.642,147.053,392.985,147.076,392.27Z" transform="translate(-71.01 -194.502)" fill="#455a64"/>
            <path id="Path_2750" data-name="Path 2750" d="M160.721,421.391a61.965,61.965,0,0,0-4.761-3.966h0s10.376,7.113,14.918,4.612c2.928-1.649,1.752-4,1.729-4.727s10.249-5.084,12.993-5.2h0c.738.461,1.349.842,1.741,1.049,8.889,4.761,7.183,8.635,4.969,11.921-1.787,2.663-6.987,4.45-14.988,3.874C172.147,428.516,164.284,424.665,160.721,421.391Z" transform="translate(-68.988 -191.469)" fill="#37474f"/>
            <path id="Path_2751" data-name="Path 2751" d="M173.692,418.125c5.557,2.617,3.055,3.459,1.441,3.574s-10.849-6.007-16.394-10.895c-5.764-5.107-9.292-10.491-11.448-12.371-.8-.7-1.66-1.545-2.421-2.306.242-1.153.438-2.306.588-2.871a1.291,1.291,0,0,1,1.291-.957c0,.715-.208,1.372.323,1.948a14.735,14.735,0,0,0,1.5,1.153,8.52,8.52,0,0,1,1.349,1.533,24.654,24.654,0,0,0,2.306,3.044C156.768,406.354,168.135,415.508,173.692,418.125Z" transform="translate(-70.684 -194.498)" fill="#37474f"/>
            <path id="Path_2752" data-name="Path 2752" d="M170.89,417.869a.611.611,0,0,1-.357-.15.53.53,0,0,1,0-.772c1.741-1.787,9.684-5.764,13.835-5a.542.542,0,0,1,.461.634.553.553,0,0,1-.657.438c-3.885-.692-11.448,3.263-12.82,4.681A.576.576,0,0,1,170.89,417.869Z" transform="translate(-66.785 -191.509)" fill="#263238"/>
            <path id="Path_2753" data-name="Path 2753" d="M166.738,414.989a.542.542,0,0,1-.346-.15.53.53,0,0,1,0-.772c1.741-1.775,9.673-5.764,13.835-5a.545.545,0,0,1-.2,1.072c-3.9-.68-11.448,3.274-12.82,4.692A.611.611,0,0,1,166.738,414.989Z" transform="translate(-67.418 -191.949)" fill="#263238"/>
            <path id="Path_2754" data-name="Path 2754" d="M162.588,412.249a.553.553,0,0,1-.369-.922c1.741-1.787,9.684-5.765,13.835-5a.545.545,0,1,1-.2,1.072c-3.9-.68-11.448,3.274-12.832,4.692A.577.577,0,0,1,162.588,412.249Z" transform="translate(-68.053 -192.368)" fill="#263238"/>
            <path id="Path_2755" data-name="Path 2755" d="M158.778,409.189a.588.588,0,0,1-.346-.15.53.53,0,0,1,0-.772c1.741-1.787,9.7-5.764,13.835-5a.545.545,0,0,1-.2,1.072c-3.885-.68-11.448,3.274-12.832,4.681a.542.542,0,0,1-.461.173Z" transform="translate(-68.636 -192.836)" fill="#263238"/>
            <path id="Path_2756" data-name="Path 2756" d="M155.066,406.128a.542.542,0,0,1-.334-.138.53.53,0,0,1,0-.773c2.4-2.536,10.653-5.764,14.815-4.992a.553.553,0,0,1,.461.634.565.565,0,0,1-.657.438c-3.747-.669-11.644,2.41-13.835,4.612A.565.565,0,0,1,155.066,406.128Z" transform="translate(-69.201 -193.304)" fill="#263238"/>
            <path id="Path_2757" data-name="Path 2757" d="M108.737,398.083l7.575-20.164L95.375,370.31l-3.24,22.6s-2.675,5.476-1.591,7.69,14.584,5.764,15.979,4.554S108.737,398.083,108.737,398.083Z" transform="translate(-79.029 -197.86)" fill="#ffbda7"/>
            <path id="Path_2758" data-name="Path 2758" d="M105.088,426.707c-1.153,5.027-2.513,8.209-5.027,10.733s-6.572,2.582-10.376.807-8.543-5.257-9.016-9.915.208-7.632,1.81-12.163Z" transform="translate(-80.522 -190.848)" fill="#263238"/>
            <path id="Path_2759" data-name="Path 2759" d="M93.528,389.911c-1.649-.254-1.914,6.768-3.874,13.42-2.11,7.125-5.073,9.6-6.917,15.437-2.052,6.652-2.1,9.834,0,14.619s11.3,11.091,17.005,6.214c4.612-3.977,5.626-9.338,6.295-16.3a152.489,152.489,0,0,1,2.306-17.593c1.084-5.1,3.067-9.511,1.741-10.376-.219.738-.473,1.672-.7,2.386s-.749,3.309-1.672,3.136a9.223,9.223,0,0,1,.277-1.948,2.237,2.237,0,0,0-.2-1.776,7.932,7.932,0,0,0-2.536-1.6c-1.556-.634-4.381-1.522-6-2.018a24.947,24.947,0,0,0-2.421-.646,7.759,7.759,0,0,0-2.11-.208,1.257,1.257,0,0,0-.98.5,1.8,1.8,0,0,0-.208.772,4.83,4.83,0,0,1-.415,1.372c-.092.185-.288.392-.519.3a.45.45,0,0,1-.2-.484c.115-.83.323-1.406.519-2.363.081-.45.254-1.038.334-1.487S93.424,390.349,93.528,389.911Z" transform="translate(-80.422 -194.864)" fill="#455a64"/>
            <path id="Path_2760" data-name="Path 2760" d="M83.43,413.31c-.311.957-2.306,7.321-.38,8.97s4.012-3.113,4.012-3.113,5.419-.219,12.555,4.393c-.542.98.092,4.773,2.306,4.5s4.116-7.632,4.139-7.736c-.669,6.675-1.706,11.84-6.226,15.7-5.707,4.877-14.872-1.418-17.005-6.214s-2.1-7.967,0-14.619A11.557,11.557,0,0,1,83.43,413.31Z" transform="translate(-80.412 -191.285)" fill="#37474f"/>
            <path id="Path_2761" data-name="Path 2761" d="M87.112,423.322c-.4,2.49-3.09,1-2.686-2.536s3.851-11.4,4.738-17.455c1.3-8.3,2.225-13.673,3.874-13.42a2.388,2.388,0,0,0,0,.254l-.738,3.459a12.4,12.4,0,0,0-.311,1.476c-.807,5.073-1.845,14.988-3.044,19.519A71.822,71.822,0,0,0,87.112,423.322Z" transform="translate(-79.932 -194.864)" fill="#37474f"/>
            <path id="Path_2762" data-name="Path 2762" d="M96.452,426.186a70.927,70.927,0,0,0,2.859-8.393c1.245-4.473,4.934-13.316,6.791-18.089a10.722,10.722,0,0,0,.991-2.709c.219-.669.45-1.522.657-2.237v-.138c.957.657.219,4.612-.519,6.572s-1.614,4.116-2.571,6.987c-2.306,5.615-3.309,14.284-4.738,17.5S95.553,428.492,96.452,426.186Z" transform="translate(-78.112 -194.143)" fill="#37474f"/>
            <path id="Path_2763" data-name="Path 2763" d="M99.052,423.1l-.208-.1a23.2,23.2,0,0,0-12.394-3.977.692.692,0,0,1-.68-.553.484.484,0,0,1,.53-.542,24.384,24.384,0,0,1,13.247,4.254.53.53,0,0,1,.15.772.623.623,0,0,1-.646.15Z" transform="translate(-79.72 -190.581)" fill="#263238"/>
            <path id="Path_2764" data-name="Path 2764" d="M101.13,418.756a.645.645,0,0,1-.2-.1,28.984,28.984,0,0,0-13.846-4.508.657.657,0,0,1-.657-.553.484.484,0,0,1,.542-.53,29.665,29.665,0,0,1,14.653,4.7.53.53,0,0,1,.184.772A.622.622,0,0,1,101.13,418.756Z" transform="translate(-79.619 -191.324)" fill="#263238"/>
            <path id="Path_2765" data-name="Path 2765" d="M88.062,409.816a.7.7,0,0,1-.461-.473.5.5,0,0,1,.484-.588c7.632-.519,14.365,4.37,14.653,4.612a.53.53,0,0,1,.15.772.657.657,0,0,1-.853,0s-6.606-4.784-13.708-4.289a.981.981,0,0,1-.265-.035Z" transform="translate(-79.441 -191.988)" fill="#263238"/>
            <path id="Path_2766" data-name="Path 2766" d="M89.062,405.7a.669.669,0,0,1-.45-.461.473.473,0,0,1,.461-.6,22.47,22.47,0,0,1,14.988,4.612.53.53,0,0,1,.092.772.669.669,0,0,1-.865,0,21.421,21.421,0,0,0-13.927-4.289A.749.749,0,0,1,89.062,405.7Z" transform="translate(-79.288 -192.617)" fill="#263238"/>
            <path id="Path_2767" data-name="Path 2767" d="M90.173,401.069a.669.669,0,0,1-.461-.45.484.484,0,0,1,.461-.6c7.9-.761,14.757,4.554,14.988,4.785a.53.53,0,0,1,.115.772.646.646,0,0,1-.853,0c-.069,0-6.7-5.177-14.031-4.473a.552.552,0,0,1-.219-.035Z" transform="translate(-79.119 -193.329)" fill="#263238"/>
            <path id="Path_2768" data-name="Path 2768" d="M124.286,220.73c-8.3,46.8-16.959,110.816-16.959,110.816-.68,3.539-3.7,9.419-7.125,26.92C96.593,376.913,92.42,403.5,92.42,403.5s11.137,8.255,21.467,5.822c0,0,13.477-40.351,20.821-61.818,6.917-20.268,16.948-51.212,16.948-51.212l2.778,31.97s-2.052,13.374-2.629,22.827c-.669,10.987,1.729,53.587,1.729,53.587s11.149,9.223,22.366,2.006c0,0,8.312-61.2,9.938-74.327,3.182-25.767,5.407-76.091,7.9-109.525Z" transform="translate(-78.703 -220.73)" fill="#7e47c3"/>
            <path id="Path_2769" data-name="Path 2769" d="M124.286,220.73c-8.3,46.8-16.959,110.816-16.959,110.816-.68,3.539-3.7,9.419-7.125,26.92C96.593,376.913,92.42,403.5,92.42,403.5s11.137,8.255,21.467,5.822c0,0,13.477-40.351,20.821-61.818,6.917-20.268,16.948-51.212,16.948-51.212l2.778,31.97s-2.052,13.374-2.629,22.827c-.669,10.987,1.729,53.587,1.729,53.587s11.149,9.223,22.366,2.006c0,0,8.312-61.2,9.938-74.327,3.182-25.767,5.407-76.091,7.9-109.525Z" transform="translate(-78.703 -220.73)" opacity="0.3"/>
            <path id="Path_2770" data-name="Path 2770" d="M143.8,291.413l8.531-33.019s12.278-.553,19.08-5.764c0,0-4.785,7.367-16.5,9.223l-8.209,29.975-.127,31.555Z" transform="translate(-70.847 -215.853)" opacity="0.2"/>
            <path id="Path_2771" data-name="Path 2771" d="M92.14,380.708c2.144,3.782,12.613,8.462,21.905,6.226l2.306-7.1c-6.917,1.533-18.181-1.626-23.231-6.8Z" transform="translate(-78.746 -197.444)" fill="#7e47c3"/>
            <path id="Path_2772" data-name="Path 2772" d="M145.323,382.2c2.744,3.332,13.835,6.018,22.585,2.121l1.1-7.4c-6.629,2.767-18.239,1.718-24-2.444Z" transform="translate(-70.664 -197.222)" fill="#7e47c3"/>
          </g>
          <g id="freepik--top--inject-125-2" data-name="freepik--top--inject-125" transform="translate(13.903)">
            <g id="freepik--arm--inject-125-4" data-name="freepik--arm--inject-125" transform="translate(87.934 115.881)">
              <path id="Path_2773" data-name="Path 2773" d="M204.29,220.887c-2.721-.646-6.664-4.612-8.416-6.629-2.2-2.479-15.979-17.72-21.755-27.889s-6.445-25.156-3.724-30.229c7.978.692,16.29,9.223,23.773,19.6,3.758,5.223,15.691,20.752,15.691,20.752,9.592-3.655,23.727-9.292,26.24-10.722,3.263-1.856,3.747-2.94,4.358-4.612a32.774,32.774,0,0,1,2.087-6.145c2.144-4.047,2.974-4.508,4.542-7.321a20.614,20.614,0,0,0,1.222-2.928.992.992,0,0,1,.484-.623.819.819,0,0,1,.646.1c1.234.588,1.453,1.372,1.614,2.744a12.059,12.059,0,0,1-.8,4.335c-.334,1.1-.749,2.306-.058,2.825s1.856-.161,2.5-.576a37.614,37.614,0,0,0,3.078-2.444,39.3,39.3,0,0,0,6.1-5.972c1.234-1.383,4.612-8.07,6.525-5.315,1.153,1.568.611,2.732.231,4.669a1.764,1.764,0,0,1,1.545.784,2.675,2.675,0,0,1,.484,1.706,9.407,9.407,0,0,1-.357,2.963c3.782,2.006-.265,10.122-1.925,12.221-6.837,8.681-9.765,9.8-16.844,13.293-1.8.888-5.177,3.6-9.673,6.295-5.119,3.055-8.07,5.984-27.427,16.429C210.423,220.333,207.068,221.532,204.29,220.887Z" transform="translate(-168.853 -155.783)" fill="#ffbda7"/>
              <path id="Path_2774" data-name="Path 2774" d="M191.161,211.077c3.24,0,8.877-3.205,10.895-5.061a17.074,17.074,0,0,0,5.764-12.371c-5.015-6.791-18.7-25.248-21.455-28.315-3.378-3.758-7.978-7.99-15.875-9.5l1.925,35.336s12.313,13.189,18.758,19.911Z" transform="translate(-168.603 -155.83)" fill="#455a64"/>
              <path id="Path_2775" data-name="Path 2775" d="M205.556,191.028c-4.738,1.856-8.255,9.569-8.128,12.428-1.752-5.269,3.286-12.855,6.917-14.146Z" transform="translate(-164.539 -150.711)" fill="#37474f"/>
              <path id="Path_2776" data-name="Path 2776" d="M243.748,174a11.321,11.321,0,0,1-8.428,11.644C238.5,187.327,247.091,182.37,243.748,174Z" transform="translate(-158.691 -153.052)" fill="#f0997a"/>
            </g>
            <path id="freepik--arm--inject-125-5" data-name="freepik--arm--inject-125" d="M139.131,197.1c5.96,1.372,13.57,4.369,15.31,3.021s-1.222-1.741-3.62-3.459c-3.078-2.306-3.643-4.277-2.041-5.649,5.349,1.925,7.471,1.937,12.486,3.205s6.583,2.214,19.772.945c12.682-1.222,26.62-2.94,26.62-2.94,12.071-12.244,14.988-16.486,23.2-25.744,5.9-6.629,10.134-6.341,15.1-7.16,9.915,15.253-1.337,31.647-1.337,31.647s-10.641,9.292-22.1,17.939c-5.638,4.254-8.209,4.773-15.2,4.612-11.771-.231-25.364-.669-29.779-.715s-6.341,0-13.385,1.764c-4.98,1.257-11.114,1.049-19.6-2.433-5.764-2.306-8.266-8.854-8.382-12.013C133.827,198.91,135.7,196.3,139.131,197.1Z" transform="translate(-86.076 -39.415)" fill="#b16668"/>
            <g id="freepik--Chest--inject-125" transform="translate(27.115 111.8)">
              <path id="Path_2777" data-name="Path 2777" d="M125.715,154.192a34.587,34.587,0,0,0-7.828,26.736,229.494,229.494,0,0,1,2.064,31.532c-.184,8.324-3.851,39.394-3.851,39.394,11.149,16.083,66.66,18.216,74.385,5.211,0,0,4.727-59.12,1.695-78.293-1.718-10.849-4.957-18.446-8.7-21.824L168.361,153.7l-21.432-1.407Z" transform="translate(-116.1 -152.29)" fill="#7e47c3"/>
              <path id="Path_2778" data-name="Path 2778" d="M125.715,154.192a34.587,34.587,0,0,0-7.828,26.736,229.494,229.494,0,0,1,2.064,31.532c-.184,8.324-3.851,39.394-3.851,39.394,11.149,16.083,66.66,18.216,74.385,5.211,0,0,4.727-59.12,1.695-78.293-1.718-10.849-4.957-18.446-8.7-21.824L168.361,153.7l-21.432-1.407Z" transform="translate(-116.1 -152.29)" fill="#fff" opacity="0.75"/>
              <path id="Path_2779" data-name="Path 2779" d="M183.277,156.948,168.162,153.7,146.73,152.29l-21.213,1.9a34.587,34.587,0,0,0-7.828,26.736c.115.83,1.383,13.685,1.487,14.515l13.132-18.124,15.172-17.547a25.963,25.963,0,0,0,18.6,6.318c11.344-.749,7.39-7.367,7.39-7.367A75.088,75.088,0,0,1,191.474,175.9C190.321,166.551,186.978,159.357,183.277,156.948Z" transform="translate(-115.902 -152.29)" fill="#455a64"/>
            </g>
            <g id="freepik--arm--inject-125-6" data-name="freepik--arm--inject-125">
              <path id="Path_2780" data-name="Path 2780" d="M129.469,80.678c2.121-6.145,9.1-10.514,13.028-14.042s3.055-6.595.553-7.9S125.468,75.617,129.469,80.678Z" transform="translate(-87.044 -54.804)" fill="#f0997a"/>
              <path id="Path_2781" data-name="Path 2781" d="M134.339,72.661c-1.222,1.441-1.372,3.735,1.752,2.559s5.177-3.286,7.909-2.686,2.928,1.868,1.349,2.963c-2.825,1.937-7.044,5.672-11.333,8.6S123.41,87.349,121.7,89.055s3.782-13.27,3.782-13.27Z" transform="translate(-88.179 -52.701)" fill="#f0997a"/>
              <path id="Path_2782" data-name="Path 2782" d="M123.7,209.313c-.565-9.315-3.562-18.366-14.077-39.729-6.041-12.267-12.786-23.577-15.138-31.243-2.479-8.07-2.306-10.134-.784-14.457,1.729-4.957,5.661-13.731,12.9-29.918,8.37-18.758,13.927-22.124,25.663-28.915,7.436-4.289,16.141-8.658,17.789-9.615s2.2,4.093-1.533,7.217-10.007,7.217-11.206,11.529a47.616,47.616,0,0,1-3.459,9.419c-1.672,3.182-4.9,5.28-7.355,7.655-3.908,3.758-10.1,39.625-10.1,39.625,3.609,7.448,12.52,27.439,15.172,30.805s8.843,7.379,8.843,7.379S140.852,199.225,123.7,209.313Z" transform="translate(-92.581 -55.317)" fill="#ffbda7"/>
              <path id="Path_2783" data-name="Path 2783" d="M143.4,156.92c-2.167.2-7.183-3.839-10.03-7.828-2.225-3.124-14.988-23.312-14.988-23.312s.542,4.312-9.327,8.877C101.727,138.047,97,135.914,97,135.914S108.229,158.822,112.772,169c6.917,15.622,8.462,22.262,9.569,30.494C129.385,198.286,146.448,177.6,143.4,156.92Z" transform="translate(-91.905 -44.544)" fill="#455a64"/>
            </g>
            <g id="freepik--head--inject-125-2" data-name="freepik--head--inject-125" transform="translate(47.049 48.287)">
              <path id="Path_2784" data-name="Path 2784" d="M167.838,100.716c-11.863-2.848-20.349,1.683-25.364,7.828-5.015,0-7.92,3.931-8.727,8.866-2.686,16.6,10.63,24.591,12.578,32.788l39.429-27.969C186.55,116.3,183.472,104.462,167.838,100.716Z" transform="translate(-133.391 -96.796)" fill="#263238"/>
              <path id="Path_2785" data-name="Path 2785" d="M135.975,105.15l6.537,2.7a3.735,3.735,0,0,1-4.773,1.879,3.355,3.355,0,0,1-1.764-4.577Z" transform="translate(-133.047 -95.985)" fill="#263238"/>
              <path id="Path_2786" data-name="Path 2786" d="M141.263,101.62l.9,6.917a3.724,3.724,0,0,1-4.07-3.113,3.459,3.459,0,0,1,3.17-3.8Z" transform="translate(-132.675 -96.524)" fill="#263238"/>
              <path id="Path_2787" data-name="Path 2787" d="M162.792,114.327c-1.5-1.234-3.7-1.9-6.744,0a8.589,8.589,0,0,0-3.136,3.851c-.865,2.087-.922,2.882-1.372,6.364-.311,2.306-1.856,7.863-5.568,5.937-1.1-.576-1.637-1.764-2.583-2.479-2.974-2.306-7.309-1.752-8.993,1.637a8.935,8.935,0,0,0,3.147,11.529c5.1,2.871,7.183,0,7.183,0l-1.153,18.354c3.136,6.1,11.079,10.261,19.507,9.926s6.664-4.681,3.8-8.07l.473-6.41a19.725,19.725,0,0,0,6.744-.231c5.211-1.257,8.474-6.687,9.7-11.529,1.407-5.5,1.614-15.241,1.43-21.075a15.589,15.589,0,0,0-.934-3.309C180.443,113.071,166.793,108.01,162.792,114.327Z" transform="translate(-133.383 -95.028)" fill="#ffbda7"/>
              <path id="Path_2788" data-name="Path 2788" d="M165.576,151.218a43.269,43.269,0,0,1-11.783-3.459c-3.908-2.156-5.315-2.121-8.774-11.379,0,0,.311,7.747,3.724,11.022,4.9,4.715,16.648,6.387,16.648,6.387Z" transform="translate(-131.613 -91.21)" fill="#f0997a"/>
              <path id="Path_2789" data-name="Path 2789" d="M164.86,122.63l1.43,13.766,6.906-2.513Z" transform="translate(-128.579 -93.312)" fill="#f0997a"/>
              <path id="Path_2790" data-name="Path 2790" d="M159.127,135.76l8.335,3.228a4.427,4.427,0,0,1-5.764,2.617A4.612,4.612,0,0,1,159.127,135.76Z" transform="translate(-129.499 -91.304)" fill="#b16668"/>
              <path id="Path_2791" data-name="Path 2791" d="M161.719,141.4a2.252,2.252,0,0,1,.53.138,4.012,4.012,0,0,0-3.39-4.462A4.542,4.542,0,0,0,161.719,141.4Z" transform="translate(-129.497 -91.103)" fill="#f28f8f"/>
              <path id="Path_2792" data-name="Path 2792" d="M175.41,125.831c.38,1.153-.4,1.441-1.476,1.787s-2.029.565-2.41-.53a2.041,2.041,0,0,1,1.268-2.606A2.11,2.11,0,0,1,175.41,125.831Z" transform="translate(-127.578 -93.043)" fill="#263238"/>
              <path id="Path_2793" data-name="Path 2793" d="M171.885,124.89a5.649,5.649,0,0,1,1.556-.53,4.542,4.542,0,0,1,1.579,0,5.061,5.061,0,0,1,1.614.484s.081.127,0,.127c-.438,0-.819-.127-1.441-.161a8.808,8.808,0,0,0-3.816.9l-.657.346c-.058,0-.1-.115-.069-.161a3.551,3.551,0,0,1,1.234-1Z" transform="translate(-127.696 -93.058)" fill="#263238"/>
              <path id="Path_2794" data-name="Path 2794" d="M171.56,119.274l4.612,1.96a2.548,2.548,0,0,0-1.349-3.3,2.467,2.467,0,0,0-3.263,1.337Z" transform="translate(-127.555 -94.06)" fill="#263238"/>
              <path id="Path_2795" data-name="Path 2795" d="M156.614,125.8c-.392,1.084.38,1.453,1.441,1.822s2.029.611,2.421-.473a2.029,2.029,0,0,0-1.153-2.629,2.1,2.1,0,0,0-2.709,1.28Z" transform="translate(-129.856 -93.043)" fill="#263238"/>
              <path id="Path_2796" data-name="Path 2796" d="M160.414,124.953a5.292,5.292,0,0,0-1.545-.565,4.289,4.289,0,0,0-1.579-.1,5.107,5.107,0,0,0-1.626.438s-.069.138,0,.127a14.023,14.023,0,0,1,1.453-.115,7.644,7.644,0,0,1,1.775.231,7.771,7.771,0,0,1,2.006.761l.657.357c.058,0,.1-.115.081-.161a3.551,3.551,0,0,0-1.222-.968Z" transform="translate(-129.99 -93.064)" fill="#263238"/>
              <path id="Path_2797" data-name="Path 2797" d="M159.79,119.578,155.433,122a2.548,2.548,0,0,1,.98-3.459,2.467,2.467,0,0,1,3.378,1.038Z" transform="translate(-130.07 -93.983)" fill="#263238"/>
              <path id="Path_2798" data-name="Path 2798" d="M161.6,116.5c-.611-1.234.323-3.459,1.36-4.266a5.638,5.638,0,0,1,4.542-.461c2.306.83,2.813,3.309,3.459,5.292a12.9,12.9,0,0,0,1.614,3.839,6.468,6.468,0,0,0,5.488,3.3,5.949,5.949,0,0,1-1.626-5.038c1.9,2.156,5.511,4.865,8.428,5.384,2.041.357,3.044-.576,3.459-2.49,1.153-5.038-.911-11.091-4.358-14.918a15.859,15.859,0,0,0-1.476-1.441c-7.113-6.087-18.758-8.993-28.35-8.428-5.384.311-13.362,4.139-12.889,11.679C146.245,108.5,159.561,112.372,161.6,116.5Z" transform="translate(-132.192 -97.2)" fill="#37474f"/>
            </g>
          </g>
        </g>
        <g id="freepik--character--inject-125-3" data-name="freepik--character--inject-125" transform="translate(129.899 48.957)">
          <g id="freepik--bottom--inject-125-3" data-name="freepik--bottom--inject-125" transform="translate(0 134.991)">
            <path id="Path_2799" data-name="Path 2799" d="M301.122,425.227c-1.153-16.141.646-24.649-.692-49.782h0c-.127-6.445-.357-13.339-.784-19.472-1.453-20.625-4.612-27.67-4.934-31.659,0,0,.749-25.364-.6-70.511-.634-21.236-6.779-27.67-11.7-38.933H223.982c-6.525,27.808-4.831,84.058-4.612,112.719.1,14.607,6,88.992,6.122,90.791.415,6.376-.138,8.9-2.64,11.529-5.234,5.615-12.832,10.964-19.392,15.864.957,2.513,8.843,2.421,12.751.507A100.027,100.027,0,0,0,230.772,437c5.4-3.989,12.278-7.194,12.371-13.27a7.993,7.993,0,0,1,.173-1.084c.1-3.539,8.37-52.053,9.062-64.182.588-10.376-.68-28.131-.68-28.131l3.113-39.752s2.859,19.4,7.056,37.239c3.459,14.515,9.05,39.291,12.9,57.161h0c3.689,20.579,9.119,31.451,10.053,41.746.288,2.467,3.067,26.609,4.22,32.143s13.2,5.672,13.973-3.839C303.566,448.7,301.352,428.306,301.122,425.227Z" transform="translate(-191.625 -214.87)" fill="#b16668"/>
            <path id="Path_2800" data-name="Path 2800" d="M193.806,422.515c-.334,0-.876,3.666.922,5.246,2.075,1.822,8.174,4.854,16.3,3.9s12.544-3.459,15.818-6.11,7.863-6.468,11.529-7.24c3.459-.715,7.136-2.214,8.243-3.263s1-5.764,1-5.764Z" transform="translate(-193.154 -185.145)" fill="#263238"/>
            <path id="Path_2801" data-name="Path 2801" d="M244.992,393.65s.611,0,.807,1.153c.242,1.291.473,5.05.98,7.171a37.838,37.838,0,0,1,.68,11.391c-.473,2.4-6.053,4.012-9.615,5.326a45.146,45.146,0,0,0-11.587,7.136c-3.839,3.1-11.9,6.168-17.178,6.191-8.07,0-13.281-2.214-14.861-5.13-1.96-3.609-.369-5.672,8.946-9.869,1.764-.8,7.978-4.381,10.088-5.684a47.269,47.269,0,0,0,6.364-4.612,34.075,34.075,0,0,0,2.859-2.767,12.776,12.776,0,0,0,2.386-2.986c.1-.242.185-.53.277-.784a14.144,14.144,0,0,0,.634-2.167c.15-.772.254-1.891,1-2.306a6.076,6.076,0,0,1,3.309-.346,24.75,24.75,0,0,1,3.574.542c1.36.323,2.94.461,3.735,1.752a6.733,6.733,0,0,1,.726,3.366v1.626c0,.231-.1.646.231.553s.657-.9.772-1.153c.265-.611.438-1.257.726-1.845A10.064,10.064,0,0,1,241,398.262a9.547,9.547,0,0,1,1.487-1.487,15.081,15.081,0,0,0,1.6-1.015A3.781,3.781,0,0,0,244.992,393.65Z" transform="translate(-193.151 -187.535)" fill="#37474f"/>
            <path id="Path_2802" data-name="Path 2802" d="M201.709,414.48c11.679.922,15.276,8.186,15.726,12.682a27.43,27.43,0,0,1-8.312,1.66c-8.07,0-13.616-2.214-15.2-5.13C192.083,420.245,193.385,417.535,201.709,414.48Z" transform="translate(-193.194 -184.35)" fill="#fafafa"/>
            <path id="Path_2803" data-name="Path 2803" d="M217.174,415.431a.577.577,0,0,0,.369-.127.565.565,0,0,0,.081-.8,13.651,13.651,0,0,0-10.514-4.277.576.576,0,0,0-.519.623.565.565,0,0,0,.623.507,12.682,12.682,0,0,1,9.523,3.862A.565.565,0,0,0,217.174,415.431Z" transform="translate(-191.146 -185.002)" fill="#f0f0f0"/>
            <path id="Path_2804" data-name="Path 2804" d="M221.562,412.943a.6.6,0,0,0,.369-.127.576.576,0,0,0,.092-.807,13.731,13.731,0,0,0-10.526-4.277.565.565,0,0,0-.507.623.553.553,0,0,0,.623.507,12.682,12.682,0,0,1,9.511,3.862.623.623,0,0,0,.438.219Z" transform="translate(-190.474 -185.384)" fill="#f0f0f0"/>
            <path id="Path_2805" data-name="Path 2805" d="M225.645,410.071a.519.519,0,0,0,.357-.115.576.576,0,0,0,.092-.807,13.731,13.731,0,0,0-10.514-4.277.579.579,0,1,0,.1,1.153,12.751,12.751,0,0,1,9.523,3.862.553.553,0,0,0,.438.184Z" transform="translate(-189.852 -185.821)" fill="#f0f0f0"/>
            <path id="Path_2806" data-name="Path 2806" d="M229.767,407.226a.565.565,0,0,0,.461-.922c-2.2-2.848-7.24-4.761-11.529-4.346a.579.579,0,1,0,.115,1.153c3.816-.38,8.52,1.384,10.48,3.908A.565.565,0,0,0,229.767,407.226Z" transform="translate(-189.374 -186.274)" fill="#f0f0f0"/>
            <path id="Path_2807" data-name="Path 2807" d="M274.44,430.989c.311,5.522,1.153,9.166,3.124,12.405s5.649,4.243,9.385,3.3,8.52-3.459,9.592-8.232,1.695-8.07.853-13.12Z" transform="translate(-180.772 -182.69)" fill="#263238"/>
            <path id="Path_2808" data-name="Path 2808" d="M290.317,395.63c1.545.115,1.995,7.517,2.882,14.93.945,7.943,3.32,11.229,4.173,17.732.968,7.448-.265,10.768-2.871,15.264s-11.829,8.912-16.383,2.467c-3.7-5.246-3.862-11.068-3.516-18.446a166.841,166.841,0,0,0-.5-18.838c-.3-5.568-1.533-11.183-.2-11.806.1.819.2,1.856.311,2.663a12.844,12.844,0,0,0,.5,2.963c.15.415.5.853.634.184a4.049,4.049,0,0,0,0-1.4c-.219-2.052.807-2.214,1.372-2.375a68.1,68.1,0,0,1,7.136-1.015c1.153-.081,5.234-.254,5.764.415a4.611,4.611,0,0,1,.519,2.156c.127,1.153.392,1.937.427,1.591.069-.807-.081-2.894-.1-3.459s-.1-1.153-.1-1.626S290.351,396.057,290.317,395.63Z" transform="translate(-180.946 -187.232)" fill="#37474f"/>
            <path id="Path_2809" data-name="Path 2809" d="M297.625,428a18.585,18.585,0,0,1-2.882,11.31c-2.606,4.5-12.578,8.923-17.121,2.479-2.306-3.205-2.871-6.987-3.182-10.86C277.161,425.959,293.324,423.734,297.625,428Z" transform="translate(-180.772 -182.629)" fill="#fafafa"/>
            <path id="Path_2810" data-name="Path 2810" d="M277.434,423.618a.611.611,0,0,0,.2,0c.058,0,7.183-2.974,14.111-1.372a.576.576,0,0,0,.692-.427.588.588,0,0,0-.438-.692c-7.332-1.683-14.6,1.326-14.861,1.453a.542.542,0,0,0,.3,1.038Z" transform="translate(-180.411 -183.412)" fill="#f0f0f0"/>
            <path id="Path_2811" data-name="Path 2811" d="M291.453,417.432a.553.553,0,0,0,.484-.38.576.576,0,0,0-.357-.726c-6.917-2.306-14.561,1.153-14.849,1.326a.565.565,0,0,0-.242.761.588.588,0,0,0,.772.242c.069,0,7.528-3.459,13.95-1.245A.576.576,0,0,0,291.453,417.432Z" transform="translate(-180.469 -184.189)" fill="#f0f0f0"/>
            <path id="Path_2812" data-name="Path 2812" d="M291.274,412.925a.576.576,0,0,0,.484-.38.565.565,0,0,0-.346-.726c-7.586-2.721-14.861,1.153-15.126,1.28a.566.566,0,0,0,.588.968c.058,0,7.09-3.7,14.158-1.153Z" transform="translate(-180.531 -184.905)" fill="#f0f0f0"/>
            <path id="Path_2813" data-name="Path 2813" d="M290.97,408.449a.574.574,0,0,0,.138-1.107c-7.113-2.663-14.988,1.268-15.23,1.441a.588.588,0,0,0-.219.784.565.565,0,0,0,.784.208c.069,0,7.655-3.839,14.261-1.36a.53.53,0,0,0,.265.035Z" transform="translate(-180.596 -185.583)" fill="#ebebeb"/>
            <path id="Path_2814" data-name="Path 2814" d="M282.169,215c6.917,12.613,11.022,21.905,11.725,59.432s.323,42.38.473,46.9,2.778,12.682,5.1,34.91-.427,45.09-.427,45.09-1.591,3.586-10.122,4.346c-7.863.7-11.76-2.248-11.76-2.248s-10.78-39.637-13.766-53.033-10.376-50.866-10.376-50.866l-1.579,31.416s2.4,12.3,0,31.855a308.022,308.022,0,0,1-6.629,35.8,35.441,35.441,0,0,1-12.048,2.018,20.475,20.475,0,0,1-10.607-2.767s-6.675-54.394-6.675-76.552-1.672-73.209,5.246-106.009Z" transform="translate(-189.815 -214.85)" fill="#37474f"/>
            <path id="Path_2815" data-name="Path 2815" d="M251.989,295.268l-7.021-42.657s-14.815-1.049-23.058-9.661c3.332,9.142,15.495,15.553,20.844,16.832l6.272,34.967,1.372,31.9Z" transform="translate(-188.804 -210.577)" fill="#263238"/>
            <path id="Path_2816" data-name="Path 2816" d="M286.181,329.2c-2.513-9.973-4.07-14.561-4.289-42.3-.231-29.906-3.747-49.344-12.117-67.11l-1.153.53a117.146,117.146,0,0,1,10,34.9c-2.571.646-5.257.945-7.794-.657-3.182-1.994-5.476-6.7-6.8-13.962-3.205-17.443-6.837-23.058-6.987-23.323l-1.026.669s3.655,5.764,6.8,22.873c1.418,7.724,3.816,12.567,7.355,14.792a8.981,8.981,0,0,0,4.877,1.36,15.3,15.3,0,0,0,3.735-.53,249.487,249.487,0,0,1,1.845,30.471c.219,27.877,1.8,32.546,4.335,42.588.461,1.856.922,3.689,1.36,5.592,2.709,11.748,5.615,41.62,4.093,68.136a9.022,9.022,0,0,0,1.291-.922c1.395-26.517-1.487-55.823-4.185-67.491C287.127,332.9,286.654,331.094,286.181,329.2Z" transform="translate(-183.59 -214.502)" fill="#263238"/>
            <path id="Path_2817" data-name="Path 2817" d="M234.63,253.41c-.231,2.387-2.11,54.186-.853,66.142.3,2.848.669,5.5,1.026,8.07a152.18,152.18,0,0,1,1.453,33.884c-.807,14.884-1.153,25.271-1.314,32.9a8.594,8.594,0,0,0,1.234-.173c.15-7.678.507-17.928,1.3-32.662a152.932,152.932,0,0,0-1.453-34.126c-.357-2.559-.726-5.2-1.015-8.07-1.257-11.863.784-65.312.842-65.888Z" transform="translate(-187.055 -208.977)" fill="#263238"/>
          </g>
          <g id="freepik--top--inject-125-3" data-name="freepik--top--inject-125" transform="translate(27.526)">
            <path id="freepik--chest--inject-125-2" data-name="freepik--chest--inject-125" d="M290.775,244.213c-1.049-4.346-4.231-17.293-4.612-19.864-1.971-14.7,2.375-19.023,2.375-33.353,0-14.158-3.908-27.727-7.171-30.483,0,0-3.7-.922-6.814-1.476-2.467-.45-4.358-.738-7.609-1.522-8.07-1.971-16.925,0-20.014.277a33.032,33.032,0,0,0-6.306.45c-2.179.507-7.252,1.383-7.263,1.383a79.551,79.551,0,0,0-13.155,18.85c-3.147,6.56-3.136,10.872-2.11,21.444.438,4.508.6,9.073.265,19.749-.346,10.987-.7,16.141-1.291,24.545C231.481,253.021,272.328,255.05,290.775,244.213Z" transform="translate(-217.07 -88.781)" fill="#7e47c3"/>
            <path id="freepik--chest--inject-125-3" data-name="freepik--chest--inject-125" d="M290.775,244.213c-1.049-4.346-4.231-17.293-4.612-19.864-1.971-14.7,2.375-19.023,2.375-33.353,0-14.158-3.908-27.727-7.171-30.483,0,0-3.7-.922-6.814-1.476-2.467-.45-4.358-.738-7.609-1.522-8.07-1.971-16.925,0-20.014.277a33.032,33.032,0,0,0-6.306.45c-2.179.507-7.252,1.383-7.263,1.383a79.551,79.551,0,0,0-13.155,18.85c-3.147,6.56-3.136,10.872-2.11,21.444.438,4.508.6,9.073.265,19.749-.346,10.987-.7,16.141-1.291,24.545C231.481,253.021,272.328,255.05,290.775,244.213Z" transform="translate(-217.07 -88.781)" fill="#fff" opacity="0.2"/>
            <g id="freepik--head--inject-125-3" data-name="freepik--head--inject-125" transform="translate(2.824)">
              <path id="Path_2818" data-name="Path 2818" d="M290.192,128.528c1.015-1.649,1.349-4.934.092-6.387a7.713,7.713,0,0,0-4.612-2.479,4.058,4.058,0,0,1-3.539-4.485c-.265-3.459-1.372-5.488-3.32-6.767-3.92-2.594-9.223-3.3-15.2-.3L251.57,147.482c2.594,2.594,3.136,4.473,4.612,5.257s3.194.254,4.612.945A13.394,13.394,0,0,1,263.1,155.6a5.615,5.615,0,0,0,6.11.507c1.637-.9,2.778-2.617,4.542-3.205,2.548-.842,5.372.968,7.955.254a2.444,2.444,0,0,0,1.418-.9c.957-1.383-.438-3.263-.161-4.923a4.416,4.416,0,0,1,1.591-2.4,8.15,8.15,0,0,0,1.995-2.133,2.213,2.213,0,0,0-.277-2.686,2.525,2.525,0,0,1,1.856,2.179,7.344,7.344,0,0,1-.4,3.021,6.364,6.364,0,0,0,2.214-9.327c-.669-.945-1.649-1.81-1.706-2.974C288.174,131.134,289.189,130.119,290.192,128.528Z" transform="translate(-214.619 -96.502)" fill="#263238"/>
              <path id="Path_2819" data-name="Path 2819" d="M267.906,108.145c5.764.346,9.546,9.373,5.661,15.806S259.04,107.084,267.906,108.145Z" transform="translate(-212.647 -96.202)" fill="#7e47c3"/>
              <path id="Path_2820" data-name="Path 2820" d="M223.682,112.491c.726-7.033,8.612-7.655,10.71-7.494a9.938,9.938,0,0,0,7.966-3.747,10.065,10.065,0,0,1,9.569-3.274c5.672,1.234,4.473,3.643,9.292,5.05,4.289,1.257,7.379-.265,11.391,3.251a11.01,11.01,0,0,1,3.24,9.085c2.963,1.672,7.275,12.152,1.822,24.072-2.8,6.122-6.352,9.085-10.722,14.238l-4.427.2c-1.591-3.7-5.326-2.836-8.808-3.551-2.306-.9-3.6-3.32-5.834-4.22s-4.865-.058-7.3-.38c-1.891-.254-3.828-1.291-5.764-.715-4.369,1.983-11.206-1.614-10.918-6.756.1-1.556.9-3.1.53-4.612-.473-1.995-2.652-3.009-3.874-4.612a5.361,5.361,0,0,1,.069-6.433C223.682,118.97,223.267,116.48,223.682,112.491Z" transform="translate(-219.52 -97.781)" fill="#263238"/>
              <path id="Path_2821" data-name="Path 2821" d="M265.311,160.878c0-2.306.45-13.939.45-13.939.081.865,4.289,3.263,8.07-1.153s4.116-9.223,1.879-12.255c-2.479-3.378-8.07-3.24-10.3,2.214-1.683,0-4.346-.311-3.459-8.958,0-10.376-10.122-19.069-18.654-11.863-3.309-5.857-10.376-3.551-12.97,2.121-1.43,3.562-1.914,4.773-1.222,11.529.115,1.153-.784,3.586-.669,8.635.288,12.509,3.712,16.313,6.41,17.847,2.306,1.314,5.569,1.649,9.823,1.948l-.242,3.862h0c-.1,1.948,0,2.778-1.833,3.39-1.268.415-3.8.945-3.8.945s-9.777,11.783,7.39,12.786A31.024,31.024,0,0,0,273.058,166s-1.222-.207-4.277-.784S265.311,163.2,265.311,160.878Z" transform="translate(-218.157 -95.683)" fill="#b16668"/>
              <path id="Path_2822" data-name="Path 2822" d="M249.321,138.83l-6.491,2.006a3.343,3.343,0,0,0,4.185,2.363,3.551,3.551,0,0,0,2.306-4.369Z" transform="translate(-215.956 -91.505)" fill="#9a4a4d"/>
              <path id="Path_2823" data-name="Path 2823" d="M248.588,140.12a3.735,3.735,0,0,0-3.758,2.894,3.263,3.263,0,0,0,1.879,0A3.459,3.459,0,0,0,249.1,140.2,3.588,3.588,0,0,0,248.588,140.12Z" transform="translate(-215.65 -91.308)" fill="#f28f8f"/>
              <path id="Path_2824" data-name="Path 2824" d="M232.784,123.342l4.612-2.41a2.513,2.513,0,0,0-3.459-1.153,2.755,2.755,0,0,0-1.153,3.562Z" transform="translate(-217.531 -94.463)" fill="#263238"/>
              <path id="Path_2825" data-name="Path 2825" d="M253.6,124.124l-4.5-2.8a2.548,2.548,0,0,1,3.574-.911,2.767,2.767,0,0,1,.922,3.712Z" transform="translate(-214.997 -94.381)" fill="#263238"/>
              <path id="Path_2826" data-name="Path 2826" d="M237.813,127.78a2.237,2.237,0,0,1-2.018,2.306,2.11,2.11,0,0,1-2.306-1.948,2.306,2.306,0,0,1,2.029-2.306,2.1,2.1,0,0,1,2.294,1.948Z" transform="translate(-217.384 -93.494)" fill="#263238"/>
              <path id="Path_2827" data-name="Path 2827" d="M251.515,128.26a2.237,2.237,0,0,1-2.029,2.306,2.1,2.1,0,0,1-2.306-1.948,2.237,2.237,0,0,1,2.029-2.306,2.1,2.1,0,0,1,2.306,1.948Z" transform="translate(-215.291 -93.421)" fill="#263238"/>
              <path id="Path_2828" data-name="Path 2828" d="M235.93,135.025l6.871,3.343,1.51-13.258Z" transform="translate(-217.011 -93.603)" fill="#9a4a4d"/>
              <path id="Path_2829" data-name="Path 2829" d="M242.534,152.25c10.065-.427,16.014-3.459,19.8-9.88,0,0-1.787,5.349-4.8,7.828-6.03,4.981-15.184,4.981-15.184,4.981Z" transform="translate(-216.029 -90.964)" fill="#9a4a4d"/>
            </g>
          </g>
        </g>
      </g>
    </g>
  </g>
</svg>
