<svg xmlns="http://www.w3.org/2000/svg" width="43" height="43" viewBox="0 0 43 43">
  <path id="Polygon_8" data-name="Polygon 8" d="M19.687,1.375a3,3,0,0,1,3.626,0l2.51,1.9a3,3,0,0,0,2.034.6l3.131-.231a3,3,0,0,1,3.036,1.957l1.107,3.013A3,3,0,0,0,36.5,10.213l2.8,1.537a3,3,0,0,1,1.487,3.265L40.1,18.19a3,3,0,0,0,.295,2.066l1.546,2.851a3,3,0,0,1-.508,3.544l-2.27,2.286a3,3,0,0,0-.864,1.906l-.224,3.228a3,3,0,0,1-2.353,2.723l-3.087.674a3,3,0,0,0-1.773,1.148L28.97,41.173A3,3,0,0,1,25.495,42.2l-2.933-1.11a3,3,0,0,0-2.124,0L17.505,42.2a3,3,0,0,1-3.475-1.023l-1.888-2.556a3,3,0,0,0-1.773-1.148l-3.087-.674a3,3,0,0,1-2.353-2.723L4.7,30.843a3,3,0,0,0-.864-1.906L1.571,26.65a3,3,0,0,1-.508-3.544L2.61,20.256A3,3,0,0,0,2.9,18.19l-.688-3.175A3,3,0,0,1,3.7,11.75l2.8-1.537A3,3,0,0,0,7.869,8.619L8.976,5.607A3,3,0,0,1,12.013,3.65l3.131.231a3,3,0,0,0,2.034-.6Z" fill="#7e47c3"/>
</svg>
