<svg xmlns="http://www.w3.org/2000/svg" width="31.642" height="30.285" viewBox="0 0 31.642 30.285">
  <path id="Icon_awesome-star" data-name="Icon awesome-star" d="M15.565,1.053,11.7,8.883l-8.641,1.26a1.894,1.894,0,0,0-1.047,3.229l6.252,6.092L6.788,28.07a1.892,1.892,0,0,0,2.744,1.993L17.262,26l7.73,4.063a1.893,1.893,0,0,0,2.744-1.993l-1.479-8.605,6.252-6.092a1.894,1.894,0,0,0-1.047-3.229l-8.641-1.26L18.96,1.053a1.894,1.894,0,0,0-3.395,0Z" transform="translate(-1.441 0.001)" fill="#7e47c3"/>
</svg>
