<svg id="Group_17" data-name="Group 17" xmlns="http://www.w3.org/2000/svg" xmlns:xlink="http://www.w3.org/1999/xlink" width="152.535" height="27.049" viewBox="0 0 152.535 27.049">
    <defs>
        <clipPath id="clip-path">
        <rect id="Rectangle_8" data-name="Rectangle 8" width="152.535" height="27.049" transform="translate(0 0)" fill="none"/>
        </clipPath>
    </defs>
    <g id="Group_16" data-name="Group 16" clip-path="url(#clip-path)">
        <path id="Path_34" data-name="Path 34" d="M10.845,8.964V0H0V27.039c4.739-3.213,10.845-8.022,10.845-18.075" fill="#fff"/>
        <path id="Path_35" data-name="Path 35" d="M27.049,16.933,16.933,27.049H27.049Z" fill="#fff"/>
        <path id="Path_36" data-name="Path 36" d="M27.049,0H14.816V8.964A23.043,23.043,0,0,1,6.538,27.049h4.78L27.049,11.318Z" fill="#fff"/>
        <path id="Path_37" data-name="Path 37" d="M48.488,3.776h-4.32v18.9H61.855V18.952H48.488Z" fill="#fff"/>
        <path id="Path_38" data-name="Path 38" d="M85.429,13.444c0,3.78-2.214,6.048-6.291,6.048s-6.291-2.268-6.291-6.048V3.776H68.526v9.992c0,5.67,3.754,9.505,10.612,9.505s10.611-3.835,10.611-9.505V3.776h-4.32Z" fill="#fff"/>
        <path id="Path_39" data-name="Path 39" d="M116.673,16.737,103.929,3.776h-5.6l18.752,18.9h3.779V3.776h-4.185Z" fill="#fff"/>
        <path id="Path_40" data-name="Path 40" d="M143.219,11.23l8.8-7.454h-5.672l-11.233,9.587V3.776H130.8v18.9h4.32v-4.7l4.943-4.186,7.289,8.884h5.184Z" fill="#fff"/>
        <path id="Path_41" data-name="Path 41" d="M99.339,22.679h8.32l-8.32-8.387Z" fill="#fff"/>
    </g>
</svg>