<svg id="Group_6277" data-name="Group 6277" xmlns="http://www.w3.org/2000/svg" xmlns:xlink="http://www.w3.org/1999/xlink" width="349" height="61.888" viewBox="0 0 349 61.888">
  <defs>
    <clipPath id="clip-path">
      <rect id="Rectangle_7" data-name="Rectangle 7" width="349" height="61.888" fill="#1a1311"/>
    </clipPath>
  </defs>
  <g id="Group_14" data-name="Group 14" transform="translate(0 0)" clip-path="url(#clip-path)">
    <path id="Path_26" data-name="Path 26" d="M24.813,20.51V0H0V61.865C10.843,54.514,24.813,43.511,24.813,20.51" transform="translate(0 0)" fill="#1a1311"/>
    <path id="Path_27" data-name="Path 27" d="M40.079,16.933,16.933,40.079H40.079Z" transform="translate(21.81 21.81)" fill="#1a1311"/>
    <path id="Path_28" data-name="Path 28" d="M53.467,0H25.478V20.51c0,20.32-9.475,33.043-18.94,41.378H17.475L53.467,25.9Z" transform="translate(8.421 0)" fill="#1a1311"/>
    <path id="Path_29" data-name="Path 29" d="M54.052,3.776H44.168V47.024H84.636V38.5H54.052Z" transform="translate(56.888 4.864)" fill="#1a1311"/>
    <path id="Path_30" data-name="Path 30" d="M107.2,25.9c0,8.649-5.066,13.838-14.394,13.838S78.412,34.545,78.412,25.9V3.776H68.526V26.638c0,12.973,8.589,21.747,24.28,21.747s24.278-8.774,24.278-21.747V3.776H107.2Z" transform="translate(88.261 4.863)" fill="#1a1311"/>
    <path id="Path_31" data-name="Path 31" d="M140.3,33.431,111.144,3.776H98.327l42.9,43.248h8.646V3.776H140.3Z" transform="translate(126.645 4.864)" fill="#1a1311"/>
    <path id="Path_32" data-name="Path 32" d="M159.218,20.831,179.361,3.776H166.384l-25.7,21.935V3.776H130.8V47.024h9.884V36.275l11.31-9.578,16.677,20.327H180.53Z" transform="translate(168.468 4.864)" fill="#1a1311"/>
    <path id="Path_33" data-name="Path 33" d="M99.339,33.481h19.036L99.339,14.292Z" transform="translate(127.949 18.407)" fill="#1a1311"/>
  </g>
</svg>
