<svg xmlns="http://www.w3.org/2000/svg" width="30.045" height="35.047" viewBox="0 0 30.045 35.047">
  <g id="カチンコのアイコン素材4" transform="translate(-36.531)">
    <path id="Path_2692" data-name="Path 2692" d="M62.261,11.96l2.733,3.949H61.9L59.17,11.96H55.261l2.734,3.949H54.9L52.171,11.96H48.262l2.733,3.949H47.9L45.172,11.96H41.262L44,15.908H40.9l-2.633-3.8L65.5,4.507l-.307-1.1-.065-.235-.425-1.52A2.27,2.27,0,0,0,62.618,0L61.136,4.288l-2.978.831L59.692.687l-3.765,1.05L54.393,6.169,51.417,7,52.95,2.567l-3.766,1.05L47.651,8.051l-2.977.83,1.534-4.431L42.442,5.5,40.909,9.932l-2.978.83L39.465,6.33,38.2,6.684a2.279,2.279,0,0,0-1.583,2.808l.425,1.519-.089.026.372,1.333.091-.026V32.769a2.279,2.279,0,0,0,2.278,2.278H64.3a2.278,2.278,0,0,0,2.278-2.278V11.96H62.261Z" transform="translate(0)" fill="#7e47c3"/>
  </g>
</svg>
